<?xml version="1.0" encoding="UTF-8"?>
<svg version="1.1" xmlns="http://www.w3.org/2000/svg" width="512" height="512">
<path d="M0 0 C2.66568623 -0.0096723 5.33058832 -0.0407794 7.99609375 -0.07226562 C20.72630769 -0.15055107 34.74924556 -0.07532362 46.56640625 5.24023438 C47.61832128 39.07117903 25.78077953 74.19519629 7.56640625 101.24023438 C7.07817383 101.96645996 6.58994141 102.69268555 6.08691406 103.44091797 C-3.11051673 117.01273658 -13.22194506 129.86718873 -24.3203125 141.93945312 C-25.7998032 143.55021102 -27.25921426 145.17953757 -28.703125 146.82226562 C-33.32154273 152.07010996 -38.06511333 156.77282399 -43.43359375 161.24023438 C-44.77550781 162.41392578 -44.77550781 162.41392578 -46.14453125 163.61132812 C-78.13170771 191.19082279 -117.88429406 196.62221638 -158.75878906 194.02929688 C-174.77531932 192.66486835 -191.18039008 189.3246356 -206.43359375 184.24023438 C-205.11149084 181.22837418 -203.79969872 179.43483306 -201.23046875 177.39257812 C-200.58722656 176.87566406 -199.94398438 176.35875 -199.28125 175.82617188 C-198.58902344 175.2821875 -197.89679688 174.73820313 -197.18359375 174.17773438 C-196.10658203 173.31728516 -196.10658203 173.31728516 -195.0078125 172.43945312 C-192.82304034 170.69780054 -190.63005977 168.96710764 -188.43359375 167.24023438 C-187.51030273 166.51344482 -187.51030273 166.51344482 -186.56835938 165.77197266 C-184.289874 163.98018503 -182.00986902 162.19039795 -179.72558594 160.40600586 C-175.25053704 156.90442539 -170.83578616 153.33282818 -166.43359375 149.74023438 C-160.9101969 145.23263465 -155.34174939 140.79180796 -149.72265625 136.40429688 C-145.24922667 132.90247191 -140.83492173 129.33212273 -136.43359375 125.74023438 C-130.9101969 121.23263465 -125.34174939 116.79180796 -119.72265625 112.40429688 C-114.56866055 108.36972106 -109.49499662 104.24004511 -104.42529297 100.1003418 C-99.25885834 95.88960295 -94.03692442 91.75471991 -88.7734375 87.66601562 C-86.55188806 85.93521226 -84.42729685 84.23393748 -82.43359375 82.24023438 C-82.9347168 82.59102051 -83.43583984 82.94180664 -83.95214844 83.30322266 C-147.43359375 127.74023438 -147.43359375 127.74023438 -149.93432617 129.49072266 C-151.59858203 130.65571801 -153.26280736 131.82075697 -154.92700195 132.98583984 C-159.13030298 135.92843849 -163.33415556 138.87024341 -167.5390625 141.81054688 C-175.55636841 147.41774713 -183.56746989 153.03326703 -191.55859375 158.67773438 C-192.2556543 159.16935059 -192.95271484 159.6609668 -193.67089844 160.16748047 C-196.66818949 162.28206714 -199.66012748 164.4027537 -202.640625 166.54101562 C-203.99220703 167.50587891 -203.99220703 167.50587891 -205.37109375 168.49023438 C-206.12261719 169.03164062 -206.87414062 169.57304687 -207.6484375 170.13085938 C-209.43359375 171.24023438 -209.43359375 171.24023438 -211.43359375 171.24023438 C-213.56781537 130.05766172 -198.73188684 84.87176118 -171.18359375 54.05273438 C-154.24917987 35.85514043 -132.62957781 26.10049375 -109.43359375 18.24023438 C-108.4885498 17.91925781 -107.54350586 17.59828125 -106.56982422 17.26757812 C-72.34007808 5.83973202 -36.05566631 0.07872416 0 0 Z " fill="#4FA52B" transform="translate(462.43359375,54.759765625)"/>
<path d="M0 0 C39.49089392 -0.83670078 82.20592772 3.4436977 118.47216797 20.06201172 C119.52146484 20.53251953 120.57076172 21.00302734 121.65185547 21.48779297 C133.01154822 26.84968357 142.4247105 34.42709555 151.47216797 43.06201172 C152.01639404 43.57707275 152.56062012 44.09213379 153.12133789 44.62280273 C157.35974534 48.72783575 160.91974076 53.0335389 164.28466797 57.87451172 C164.79747314 58.61169434 165.31027832 59.34887695 165.83862305 60.10839844 C180.96925303 82.23697404 189.68377288 105.98132552 195.47216797 132.06201172 C191.36128239 133.43230691 189.83708536 132.19923975 185.89404297 130.47607422 C185.22855942 130.18842697 184.56307587 129.90077972 183.87742615 129.60441589 C181.65492276 128.64105529 179.4386942 127.6640376 177.22216797 126.68701172 C175.64352241 125.99954599 174.06449437 125.31295799 172.48510742 124.62719727 C169.15560949 123.17948886 165.8287372 121.72597256 162.50390625 120.26757812 C157.70441154 118.1623502 152.89962559 116.06946906 148.09326172 113.97998047 C141.71986105 111.20790287 135.34903219 108.43000335 128.97998047 105.64794922 C117.00436512 100.4176518 105.01949324 95.20866211 93.03466797 89.99951172 C90.97175907 89.10278781 88.90885211 88.20605941 86.84594727 87.30932617 C82.05477196 85.22669364 77.26350052 83.14428245 72.47216797 81.06201172 C81.28249589 85.9397581 90.20442943 90.58340356 99.15966797 95.18701172 C99.88116028 95.55851349 100.60265259 95.93001526 101.3460083 96.31277466 C111.62263719 101.60346973 121.93441453 106.81745627 132.28637695 111.95947266 C138.8881689 115.24651239 145.42005692 118.64727817 151.92993164 122.11206055 C163.65956692 128.32172074 175.58557512 134.16028575 187.47216797 140.06201172 C186.47216797 143.06201172 186.47216797 143.06201172 182.95654297 144.89404297 C181.38500911 145.56973973 179.80622766 146.22872562 178.22216797 146.87451172 C177.37678467 147.22344482 176.53140137 147.57237793 175.66040039 147.93188477 C140.68324807 161.96574907 100.9606545 167.0976583 65.47216797 152.06201172 C51.44234114 145.56790248 39.74313286 135.45471961 28.47216797 125.06201172 C27.61623047 124.30919922 26.76029297 123.55638672 25.87841797 122.78076172 C21.36078841 118.80742488 17.16643877 114.7946219 13.29248047 110.19091797 C11.21643026 107.76291934 9.03283997 105.45425535 6.84716797 103.12451172 C0.20848136 95.83201507 -5.66736066 87.98479332 -11.52783203 80.06201172 C-12.0413623 79.37333008 -12.55489258 78.68464844 -13.08398438 77.97509766 C-47.36178526 31.77889769 -47.36178526 31.77889769 -46.52783203 9.06201172 C-32.40549865 2.0751731 -15.53021867 0.38098083 0 0 Z " fill="#E47B1A" transform="translate(49.52783203125,94.93798828125)"/>
<path d="M0 0 C2.08777176 2.08777176 2.54569897 3.13413236 3.45967102 5.86676025 C3.73286163 6.67386444 4.00605225 7.48096863 4.28752136 8.31253052 C4.72781425 9.64331131 4.72781425 9.64331131 5.17700195 11.00097656 C5.49113037 11.93463043 5.80525879 12.8682843 6.12890625 13.83023071 C7.17094201 16.93185559 8.20455507 20.03622179 9.23828125 23.140625 C9.9627548 25.30159909 10.68779446 27.46238347 11.41337585 29.62298584 C13.32855957 35.33039312 15.23681956 41.04009098 17.14343262 46.75036621 C20.18247863 55.84782994 23.23282372 64.941514 26.2814846 74.03575897 C27.34055027 77.19775825 28.39724938 80.36053973 29.45344543 83.52349854 C32.86304394 93.72219403 36.31592948 103.89671674 40 114 C38.34710928 107.82159963 36.69420128 101.64320389 35.04104614 95.46487427 C34.73715092 94.32912775 34.73715092 94.32912775 34.42711639 93.17043686 C34.0039459 91.58892655 33.58077387 90.00741665 33.1576004 88.42590714 C31.8459195 83.52368218 30.5345463 78.62137503 29.22338772 73.71901035 C23.27240049 51.4684452 23.27240049 51.4684452 17.2890625 29.2265625 C16.76928208 27.29809706 16.24950643 25.36963033 15.72973633 23.44116211 C14.80521121 20.01154538 13.8774876 16.58281517 12.94799805 13.15454102 C12.54464285 11.65904828 12.14139567 10.16352641 11.73828125 8.66796875 C11.39837158 7.41266357 11.05846191 6.1573584 10.70825195 4.86401367 C10 2 10 2 10 0 C30.6782179 5.90806226 49.32861664 18.59413885 65 33 C65.75796875 33.67546875 66.5159375 34.3509375 67.296875 35.046875 C84.09290025 50.76795463 95.23376945 74.00793095 96.16113281 96.99389648 C96.18074944 98.45289751 96.19446629 99.91198655 96.203125 101.37109375 C96.21013931 102.16189331 96.21715363 102.95269287 96.22438049 103.76745605 C96.24187078 106.32419547 96.24823873 108.88070284 96.25 111.4375 C96.25067474 112.31270294 96.25134949 113.18790588 96.25204468 114.08963013 C96.2347057 128.25881715 95.53471371 142.03063634 93 156 C92.82839355 156.96824707 92.65678711 157.93649414 92.47998047 158.93408203 C87.81971283 184.58429509 81.56106693 215.03599081 65 236 C49.81507262 234.46778594 33.96585983 217.80509013 24 207 C23.48953125 206.44828125 22.9790625 205.8965625 22.453125 205.328125 C20.59102948 203.25321856 18.79055726 201.13711673 17 199 C16.58121582 198.50032715 16.16243164 198.0006543 15.73095703 197.48583984 C-3.07166856 174.90012332 -19.3979174 149.8248168 -29.375 122.0625 C-29.61379883 121.40121094 -29.85259766 120.73992187 -30.09863281 120.05859375 C-36.94464491 100.16453834 -35.41197193 78.05613127 -30 58 C-29.67257813 56.75992188 -29.34515625 55.51984375 -29.0078125 54.2421875 C-23.43687296 35.74016202 -13.83930811 13.83930811 0 0 Z M41 117 C42 120 42 120 42 120 Z M42 121 C43 123 43 123 43 123 Z " fill="#E3403C" transform="translate(244,243)"/>
<path d="M0 0 C0.99 0.495 0.99 0.495 2 1 C0.35 2.98 -1.3 4.96 -3 7 C0.92192287 7.85710897 4.84748503 8.69565786 8.77539062 9.52490234 C10.2752788 9.84522526 11.77396997 10.17119843 13.27148438 10.50244141 C49.86166265 18.59538184 88.9153639 19.81351302 124 5 C116.49874241 13.8830682 108.96512199 22.56393831 100 30 C99.10667969 30.78117187 98.21335937 31.56234375 97.29296875 32.3671875 C65.30750184 59.95098466 25.54988949 65.38201942 -15.32519531 62.7890625 C-31.34172557 61.42463398 -47.74679633 58.08440122 -63 53 C-61.67789709 49.9881398 -60.36610497 48.19459869 -57.796875 46.15234375 C-56.83201172 45.37697266 -56.83201172 45.37697266 -55.84765625 44.5859375 C-55.15542969 44.04195312 -54.46320313 43.49796875 -53.75 42.9375 C-53.03199219 42.36386719 -52.31398438 41.79023438 -51.57421875 41.19921875 C-49.38944659 39.45756616 -47.19646602 37.72687326 -45 36 C-44.07670898 35.27321045 -44.07670898 35.27321045 -43.13476562 34.53173828 C-40.85628025 32.73995065 -38.57627527 30.95016357 -36.29199219 29.16577148 C-31.13707592 25.13221687 -26.06416149 21.00144764 -20.99389648 16.86230469 C-15.79445816 12.62548998 -10.54059908 8.46269217 -5.25195312 4.33789062 C-2.53469728 2.27475845 -2.53469728 2.27475845 0 0 Z " fill="#94C87F" transform="translate(319,186)"/>
<path d="M0 0 C0.99 0.495 0.99 0.495 2 1 C1.443125 1.92296875 0.88625 2.8459375 0.3125 3.796875 C-15.30790845 30.25262747 -27.23588551 64.84566467 -24.50244141 95.87182617 C-23.78762233 104.35134445 -23.78762233 104.35134445 -26.19677734 107.62744141 C-29.65611826 110.98100528 -33.67781382 113.36855875 -37.84472656 115.7421875 C-41.32666433 117.77423818 -44.57926886 120.12030453 -47.875 122.4375 C-49.20712318 123.34942654 -50.54047252 124.25956434 -51.875 125.16796875 C-56.2385691 128.15274214 -60.55924446 131.19664712 -64.875 134.25 C-65.58712646 134.75297607 -66.29925293 135.25595215 -67.03295898 135.77416992 C-70.10319762 137.94412111 -73.16803244 140.12057601 -76.22265625 142.3125 C-77.11855469 142.951875 -78.01445312 143.59125 -78.9375 144.25 C-79.68902344 144.79140625 -80.44054687 145.3328125 -81.21484375 145.890625 C-83 147 -83 147 -85 147 C-87.13422162 105.81742734 -72.29829309 60.6315268 -44.75 29.8125 C-32.55348114 16.70621246 -16.77936964 6.27900558 0 0 Z " fill="#94C87F" transform="translate(336,79)"/>
<path d="M0 0 C2.31574591 2.31574591 2.83714017 3.95998353 3.89526367 7.04467773 C4.25871384 8.09594345 4.622164 9.14720917 4.99662781 10.23033142 C5.38317032 11.36990799 5.76971283 12.50948456 6.16796875 13.68359375 C6.56703934 14.85003922 6.96610992 16.01648468 7.37727356 17.21827698 C8.43602838 20.32106417 9.48862187 23.42586851 10.53973389 26.53125 C11.18685711 28.43560809 11.83977406 30.33787393 12.49487305 32.23950195 C13.74935372 35.88444024 14.99161507 39.53331862 16.23046875 43.18359375 C16.62308395 44.32114609 17.01569916 45.45869843 17.42021179 46.63072205 C17.77420547 47.68513992 18.12819916 48.7395578 18.49291992 49.82592773 C18.80887619 50.7547728 19.12483246 51.68361786 19.45036316 52.64060974 C20 55 20 55 19 58 C17.33333333 59.66666667 15.66666667 61.33333333 14 63 C11.06874091 67.17049058 8.54132558 71.58439019 6 76 C5.44989258 76.94431885 5.44989258 76.94431885 4.88867188 77.90771484 C-8.70078745 101.47656409 -14.36761278 124.96457268 -15 152 C-17.84348059 148.34581428 -19.85611179 144.49291792 -21.8125 140.3125 C-22.33481201 139.19669556 -22.33481201 139.19669556 -22.86767578 138.05834961 C-25.27582065 132.80797604 -27.43301967 127.50213638 -29.375 122.0625 C-29.61323486 121.4022583 -29.85146973 120.7420166 -30.09692383 120.06176758 C-36.94842729 100.16990711 -35.41160393 78.0547675 -30 58 C-29.67257813 56.75992188 -29.34515625 55.51984375 -29.0078125 54.2421875 C-23.43687296 35.74016202 -13.83930811 13.83930811 0 0 Z " fill="#ED8B88" transform="translate(244,243)"/>
<path d="M0 0 C20.6782179 5.90806226 39.32861664 18.59413885 55 33 C55.75796875 33.67546875 56.5159375 34.3509375 57.296875 35.046875 C73.32885717 50.05281031 85.18551675 73.02128922 86.08668518 95.12632751 C86.114899 97.48982431 86.11258901 99.85122839 86.09765625 102.21484375 C86.0962413 103.07058487 86.09482635 103.92632599 86.09336853 104.80799866 C86.0878099 107.51786931 86.07526525 110.22765468 86.0625 112.9375 C86.05747965 114.78450401 86.05291768 116.63150932 86.04882812 118.47851562 C86.03785405 122.98570951 86.0206183 127.49284034 86 132 C85.67 132 85.34 132 85 132 C85.01683838 131.17910889 85.03367676 130.35821777 85.05102539 129.51245117 C85.09269694 126.41195689 85.09306791 123.314722 85.06713867 120.21411133 C85.06260727 118.23436627 85.10399329 116.25468483 85.14648438 114.27539062 C85.0181239 104.13491299 82.18815816 99.01219879 75 92 C74.14575439 91.13608643 73.29150879 90.27217285 72.41137695 89.38208008 C56.93737281 74.10107879 35.9406411 63.19138369 16 55 C15.67 55.99 15.34 56.98 15 58 C13.04130698 50.73383671 11.08529559 43.46695616 9.13272858 36.19914436 C8.22604078 32.82462462 7.31842247 29.45036086 6.40869141 26.07666016 C5.36345485 22.20028184 4.32224158 18.32283296 3.28125 14.4453125 C2.95314331 13.23070343 2.62503662 12.01609436 2.2869873 10.76467896 C1.98667603 9.64366791 1.68636475 8.52265686 1.37695312 7.36767578 C1.11047974 6.37728302 0.84400635 5.38689026 0.56945801 4.3664856 C0 2 0 2 0 0 Z " fill="#EE8B88" transform="translate(254,243)"/>
<path d="M0 0 C0.66 0.33 1.32 0.66 2 1 C0.35 2.98 -1.3 4.96 -3 7 C0.92192287 7.85710897 4.84748503 8.69565786 8.77539062 9.52490234 C10.2752788 9.84522526 11.77396997 10.17119843 13.27148438 10.50244141 C49.86166265 18.59538184 88.9153639 19.81351302 124 5 C122.65489391 6.59288879 121.30146705 8.17907174 119.921875 9.7421875 C117.93921845 12.01455519 117.93921845 12.01455519 116.078125 14.6328125 C109.05680243 23.5713047 100.8243578 26.62847915 90.29541016 30.21582031 C88.3961265 30.86467153 86.5137375 31.56274283 84.63671875 32.2734375 C68.42591037 38.23758 50.66580674 39.25247718 33.5625 39.3125 C32.48526169 39.31642761 32.48526169 39.31642761 31.38626099 39.32043457 C9.50217937 39.32890259 -12.25499514 36.09284584 -33 29 C-31.67789709 25.9881398 -30.36610497 24.19459869 -27.796875 22.15234375 C-27.15242432 21.63446289 -26.50797363 21.11658203 -25.84399414 20.58300781 C-25.15297607 20.03999023 -24.46195801 19.49697266 -23.75 18.9375 C-23.04286865 18.37256836 -22.3357373 17.80763672 -21.60717773 17.22558594 C-19.41137593 15.47521331 -17.2070759 13.73612838 -15 12 C-14.30471191 11.45166504 -13.60942383 10.90333008 -12.89306641 10.33837891 C-9.80037925 7.90038617 -6.70276444 5.46902406 -3.59765625 3.046875 C-1.73726445 1.5927332 -1.73726445 1.5927332 0 0 Z " fill="#72B755" transform="translate(319,186)"/>
<path d="M0 0 C32.81845768 8.62051653 56.04184105 30.90939495 72.94018555 59.43969727 C83.41179208 77.7860175 89.44441964 97.47398892 94 118 C86.77222822 120.40925726 76.22905739 114.48816238 69.48828125 111.203125 C64.98423034 108.82848275 62.09736198 106.57900803 60.16796875 101.734375 C58.82322705 96.65994257 58.2270369 91.47285173 57.57177734 86.27148438 C56.57578753 80.57282362 54.40591167 75.38213574 52.1875 70.0625 C51.75550293 69.01578125 51.32350586 67.9690625 50.87841797 66.890625 C39.71977906 40.42071256 23.84668302 17.58899688 0 1 C0 0.67 0 0.34 0 0 Z " fill="#EFAF74" transform="translate(151,109)"/>
<path d="M0 0 C0.66 0.33 1.32 0.66 2 1 C1.443125 1.92296875 0.88625 2.8459375 0.3125 3.796875 C-15.31118845 30.2581827 -27.22713529 64.8405182 -24.50317383 95.87231445 C-23.78321927 104.37810286 -23.78321927 104.37810286 -26.24511719 107.65966797 C-29.73264042 111.00336499 -33.73479851 113.41392375 -37.92089844 115.78417969 C-41.20415122 117.70416546 -44.23418992 119.95950314 -47.3125 122.1875 C-52.7408056 126 -52.7408056 126 -55 126 C-56.96852194 88.67099133 -44.87384999 47.91046198 -23.11816406 17.59375 C-22.14066728 16.20049695 -21.23191467 14.75952416 -20.3359375 13.3125 C-15.51680639 5.99730611 -8.07466515 2.79244768 0 0 Z " fill="#72B755" transform="translate(336,79)"/>
<path d="M0 0 C10.98973142 1.93786447 18.79000464 4.00129128 27 12 C28.35008458 13.15064027 29.70411589 14.2966696 31.0625 15.4375 C32.38204175 16.61717032 33.69440227 17.80491546 35 19 C35.69609375 19.63035156 36.3921875 20.26070312 37.109375 20.91015625 C60.40807606 43.01087445 77.77510948 79.15420608 81 111 C73.75423446 108.72578162 66.87948128 105.88273904 59.9375 102.8125 C58.88111328 102.34908203 57.82472656 101.88566406 56.73632812 101.40820312 C54.15598036 100.2756523 51.57727399 99.13952397 49 98 C49.66 97.67 50.32 97.34 51 97 C43.31346649 60.85851073 28.90281301 29.08420574 2.08984375 3.1171875 C0 1 0 1 0 0 Z " fill="#E99547" transform="translate(133,104)"/>
<path d="M0 0 C20.61990132 9.71300865 20.61990132 9.71300865 29 14 C28 17 28 17 24.484375 18.83203125 C22.91284114 19.50772801 21.33405969 20.1667139 19.75 20.8125 C18.9046167 21.16143311 18.0592334 21.51036621 17.18823242 21.86987305 C-17.28315565 35.70080983 -55.73660145 40.63667121 -90.97119141 26.86767578 C-95.91906748 24.75158053 -100.61407194 22.1217488 -105 19 C-105 18.67 -105 18.34 -105 18 C-103.84250244 18.10501831 -103.84250244 18.10501831 -102.66162109 18.2121582 C-66.65155868 21.25924638 -33.81118223 16.65820479 -1 1 C-0.67 0.67 -0.34 0.34 0 0 Z " fill="#EFAF74" transform="translate(208,221)"/>
<path d="M0 0 C0.66 0 1.32 0 2 0 C3.53574781 4.09874125 5.05101224 8.20475689 6.5625 12.3125 C7.21895508 14.06336914 7.21895508 14.06336914 7.88867188 15.84960938 C8.50258789 17.52700195 8.50258789 17.52700195 9.12890625 19.23828125 C9.51119385 20.26993408 9.89348145 21.30158691 10.28735352 22.36450195 C11 25 11 25 10 28 C8.33333333 29.66666667 6.66666667 31.33333333 5 33 C2.06874091 37.17049058 -0.45867442 41.58439019 -3 46 C-3.55010742 46.94431885 -3.55010742 46.94431885 -4.11132812 47.90771484 C-17.70078745 71.47656409 -23.36761278 94.96457268 -24 122 C-31.86284609 111.91629385 -33.9997126 102.61053311 -33.6875 90.0625 C-33.6779126 89.33833893 -33.6683252 88.61417786 -33.65844727 87.86807251 C-33.48172731 75.4201036 -32.0673611 63.8100195 -28 52 C-27.71592285 51.16758789 -27.4318457 50.33517578 -27.13916016 49.47753906 C-21.6541054 33.86965969 -14.02070061 19.39195812 -4.5 5.875 C-4.0786377 5.2763916 -3.65727539 4.6777832 -3.22314453 4.06103516 C-2.20360281 2.66558703 -1.10847418 1.32590565 0 0 Z " fill="#E96562" transform="translate(253,273)"/>
<path d="M0 0 C9.76631564 4.82674136 19.44559123 9.76470752 29 15 C26.97314031 19.05371937 20.8435784 20.14821566 16.8125 21.75 C15.68859863 22.19666016 14.56469727 22.64332031 13.40673828 23.10351562 C-12.13006647 33.02671657 -35.73356519 35.6947383 -63 35 C-63.84820312 34.98549805 -64.69640625 34.97099609 -65.5703125 34.95605469 C-76.71998224 34.66132775 -83.05802401 30.25893927 -91 23 C-88.70078204 21.85039102 -87.50580872 21.91009407 -84.95703125 21.97265625 C-83.72907837 21.99344238 -83.72907837 21.99344238 -82.47631836 22.01464844 C-81.5972583 22.03043945 -80.71819824 22.04623047 -79.8125 22.0625 C-70.99403332 22.128409 -62.70033331 21.56250884 -54 20 C-53.27490234 19.87109375 -52.54980469 19.7421875 -51.80273438 19.609375 C-36.57200522 16.83781856 -22.18484892 12.34918545 -7.9375 6.3125 C-7.25212158 6.02721436 -6.56674316 5.74192871 -5.8605957 5.44799805 C-4.20032718 4.71696674 -2.59345746 3.8670592 -1 3 C-0.67 2.01 -0.34 1.02 0 0 Z " fill="#E99547" transform="translate(179,206)"/>
<path d="M0 0 C6.78701739 2.01542626 12.93569739 4.75625824 19.1875 8.0625 C20.10660156 8.54783203 21.02570313 9.03316406 21.97265625 9.53320312 C29.8165717 13.75727244 37.03129509 18.46050237 44 24 C44.56154785 24.4434375 45.1230957 24.886875 45.70166016 25.34375 C55.81407942 33.40848312 64.24211921 42.12354354 71.5 52.875 C71.93401123 53.51791992 72.36802246 54.16083984 72.81518555 54.82324219 C75.78387612 59.35524843 77.13096092 62.6640371 77.11352539 68.03417969 C77.11341209 69.20494049 77.11341209 69.20494049 77.11329651 70.39935303 C77.10813522 71.23178528 77.10297394 72.06421753 77.09765625 72.921875 C77.0962413 73.78186096 77.09482635 74.64184692 77.09336853 75.52789307 C77.08778097 78.26863109 77.07523075 81.00928676 77.0625 83.75 C77.05748339 85.6106759 77.05292077 87.47135309 77.04882812 89.33203125 C77.03781561 93.88805246 77.02055951 98.44401228 77 103 C76.67 103 76.34 103 76 103 C76.01683838 102.17910889 76.03367676 101.35821777 76.05102539 100.51245117 C76.09269694 97.41195689 76.09306791 94.314722 76.06713867 91.21411133 C76.06260727 89.23436627 76.10399329 87.25468483 76.14648438 85.27539062 C76.0181239 75.13491299 73.18815816 70.01219879 66 63 C64.71863159 61.70412964 64.71863159 61.70412964 63.41137695 60.38208008 C47.93737281 45.10107879 26.9406411 34.19138369 7 26 C6.67 26.99 6.34 27.98 6 29 C4.98507342 25.4832974 3.99079499 21.96107048 3 18.4375 C2.71382813 17.44685547 2.42765625 16.45621094 2.1328125 15.43554688 C0.65000228 10.12214357 -0.37154352 5.51896941 0 0 Z " fill="#E96562" transform="translate(263,272)"/>
</svg>
